HIERARCHY
ROOT Hips
{
	OFFSET 0.00000 0.00000 0.00000
	CHANNELS 6 Xposition Yposition Zposition Yrotation Zrotation Xrotation 
	JOINT Lumbar
	{
		OFFSET 0 0 0
		CHANNELS 3 Zrotation Xrotation Yrotation
		JOINT Neck
		{
			OFFSET 0.00 0.2701 0.00
			CHANNELS 3 Zrotation Xrotation Yrotation
			End Site
			{
				OFFSET 0.00 0.1379 0.00
			}
		}
		JOINT RightShoulder
		{
			OFFSET 0.0119 0.2289 0.1181
			CHANNELS 3 Zrotation Xrotation Yrotation
			JOINT RightElbow
			{
				OFFSET 0.00 -0.1475 0.00
				CHANNELS 2 Zrotation Yrotation
				JOINT RightWrist
				{
					OFFSET 0.00 -0.1605 0.00
					CHANNELS 2 Zrotation Xrotation
					End Site
					{
						OFFSET 0.0040 -0.1068 0.0006
					}
				}
			}
		}
		JOINT LeftShoulder
		{
			OFFSET 0.0119 0.2289 -0.1181
			CHANNELS 3 Zrotation Xrotation Yrotation
			JOINT LeftElbow
			{
				OFFSET 0.00 -0.1475 0.00
				CHANNELS 2 Zrotation Yrotation
				JOINT LeftWrist
				{
					OFFSET 0.00 -0.1605 0.00
					CHANNELS 2 Zrotation Xrotation
					End Site
					{
						OFFSET 0.0040 -0.1068 -0.0006
					}
				}
			}
		}
	}
	JOINT RightHip
	{
		OFFSET 0.0316 -0.0424 0.0458
		CHANNELS 3 Zrotation Xrotation Yrotation
		JOINT RightKnee
		{
			OFFSET 0.00 -0.2438 0.00
			CHANNELS 1 Zrotation
			JOINT RightAnkle
			{
				OFFSET 0.00 -0.2449 0.00
				CHANNELS 3 Zrotation Xrotation Yrotation
				End Site
				{
					OFFSET 0.1237 -0.0542 0.0051
				}
			}
		}
	}
	JOINT LeftHip
	{
		OFFSET 0.0316 -0.0424 -0.0458
		CHANNELS 3 Zrotation Xrotation Yrotation
		JOINT LeftKnee
		{
			OFFSET 0.00 -0.2438 0.00
			CHANNELS 1 Zrotation
			JOINT LeftAnkle
			{
				OFFSET 0.00 -0.2449 0.00
				CHANNELS 3 Zrotation Xrotation Yrotation
				End Site
				{
					OFFSET 0.1237 -0.0542 -0.0051
				}
			}
		}
	}
}
MOTION
Frames: 20
Frame Time: 0.02
0 0.57926 -0 200.95182 0 -3.18084 8.48787 3.79575 -3.29837 -7.91258 -2.52801 -2.9245 18.07487 -4.44815 20.0586 10.21364 80.99704 -0.48159 -3.08217 21.30603 7.45824 -11.08538 17.89065 -71.38956 10.32263 9.05966 -5.40554 8.01802 9.62491 -3.53213 1.08458 -3.53993 -4.17525 -4.17556 -0.60301 -9.77957 -5.24098 5.77256 5.1938 6.76084
-0.00034 0.57921 0.00026 201.01503 0 -3.1925 8.38879 3.87807 -3.19561 -7.62952 -2.35874 -2.96272 16.31358 -4.93885 17.54332 9.56961 80.95162 -0.46779 -2.69229 19.10373 7.85249 -11.80507 16.16448 -72.21155 7.15365 7.68506 -5.47078 8.02895 9.56334 -3.49441 1.10946 -3.54792 -4.21383 -4.21258 -0.60212 -9.81831 -5.23942 5.81066 5.22307 6.7667
-0.00067 0.57915 0.00053 201.07791 0 -3.20404 8.28941 3.95987 -3.09352 -7.34669 -2.1895 -3.00069 14.55575 -5.42932 15.01141 8.92902 80.90232 -0.45584 -2.30318 16.90402 8.24418 -12.44474 14.44803 -73.02313 4.00806 6.32123 -5.53565 8.03977 9.50216 -3.45698 1.13438 -3.55587 -4.25227 -4.24946 -0.60128 -9.85672 -5.23779 5.8486 5.25215 6.77236
-0.001 0.5791 0.00079 201.14033 0 -3.21527 8.18817 4.04032 -2.99377 -7.06216 -2.01816 -3.03871 12.79862 -5.92339 12.39901 8.29521 80.83905 -0.45043 -1.91186 14.69848 8.62645 -12.75335 12.7521 -73.78813 0.92823 4.98956 -5.59964 8.05014 9.44094 -3.42015 1.15977 -3.5637 -4.28961 -4.28597 -0.60068 -9.89434 -5.23587 5.88627 5.28078 6.77717
-0.00136 0.57904 0.00106 201.20546 0 -3.22819 8.09711 4.12783 -2.88241 -6.78676 -1.85726 -3.07728 11.04259 -6.39811 10.22553 7.62465 80.85214 -0.40951 -1.53048 12.53016 9.05495 -14.79357 10.94567 -74.78445 -2.49625 3.49052 -5.66824 8.06276 9.37849 -3.37992 1.18279 -3.57211 -4.3315 -4.32425 -0.59886 -9.9363 -5.23548 5.92536 5.31179 6.78633
-0.00166 0.57898 0.00131 201.26459 0 -3.23752 7.98438 4.20041 -2.7952 -6.49227 -1.67492 -3.11412 9.28274 -6.91348 7.11743 7.03304 80.70213 -0.44433 -1.12967 10.28102 9.38774 -13.18452 9.37596 -75.30099 -5.19085 2.34491 -5.72704 8.0707 9.31971 -3.34708 1.21072 -3.57932 -4.36459 -4.35889 -0.59959 -9.96892 -5.23185 5.9614 5.33774 6.7864
-0.00182 0.57891 0.0015 201.3101 0 -3.23667 7.80839 4.23146 -2.77897 -6.13557 -1.42219 -3.15136 7.49105 -7.55769 1.32004 6.6463 80.09539 -0.69181 -0.65172 7.77461 9.43476 -0.95734 8.42996 -74.36609 -5.84895 2.19699 -5.75944 8.06483 9.2656 -3.3329 1.25371 -3.5831 -4.37029 -4.38298 -0.60794 -9.97693 -5.21904 5.98969 5.35005 6.75934
-0.00191 0.57882 0.00167 201.34916 0 -3.23224 7.61101 4.24751 -2.78626 -5.76121 -1.14968 -3.18597 5.69824 -8.24032 -5.40464 6.34123 79.32542 -1.01517 -0.15786 5.19112 9.38907 14.86264 7.72736 -72.96663 -5.7743 2.40187 -5.7819 8.05445 9.21889 -3.3264 1.3012 -3.58574 -4.37051 -4.40349 -0.61878 -9.9754 -5.20302 6.0148 5.3572 6.72342
-0.00204 0.57875 0.00185 201.38914 0 -3.22966 7.42534 4.27067 -2.78001 -5.4003 -0.8931 -3.21846 3.91649 -8.89575 -11.64568 6.00693 78.63222 -1.30212 0.31393 2.66058 9.39995 28.7103 6.9318 -71.8639 -6.04986 2.43091 -5.80846 8.0466 9.16882 -3.31756 1.34596 -3.58893 -4.37162 -4.42605 -0.62808 -9.97732 -5.18859 6.04101 5.36653 6.69283
-0.00215 0.57866 0.00204 201.43714 0 -3.22622 7.23103 4.29262 -2.78595 -5.01542 -0.60696 -3.26488 2.08716 -9.59336 -18.16012 5.63951 77.92426 -1.59806 0.84793 0.05055 9.35028 44.01263 6.06207 -70.40991 -6.25457 2.52485 -5.8366 8.03648 9.10749 -3.30415 1.39451 -3.59183 -4.36781 -4.44696 -0.63903 -9.98257 -5.17354 6.06874 5.37659 6.65681
-0.00228 0.57859 0.00219 201.46749 0 -3.22363 7.04999 4.31346 -2.77193 -4.67769 -0.37806 -3.28171 0.36082 -10.2108 -24.31094 5.36036 77.21316 -1.8922 1.25657 -2.40691 9.40419 57.10975 5.40442 -69.56467 -6.43035 2.5682 -5.85933 8.03034 9.08551 -3.30175 1.43512 -3.59528 -4.3876 -4.47028 -0.6472 -9.97912 -5.15912 6.09245 5.38387 6.62991
-0.00252 0.57858 0.00228 201.44587 0 -3.22491 6.90789 4.33558 -2.69848 -4.46247 -0.30851 -3.21705 -1.11619 -10.61007 -29.35549 5.3058 76.4897 -2.17219 1.31173 -4.46928 9.77092 63.49094 5.27408 -70.62258 -6.72715 2.37871 -5.86723 8.03317 9.03999 -3.33077 1.46281 -3.5986 -4.33924 -4.50258 -0.6465 -9.94987 -5.1462 6.10672 5.38516 6.63109
-0.00278 0.5786 0.00233 201.40766 0 -3.22703 6.78049 4.35699 -2.60394 -4.29776 -0.29783 -3.12283 -2.48196 -10.92503 -33.97758 5.33713 75.77585 -2.446 1.24089 -6.36568 10.24394 67.48338 5.3486 -72.28979 -7.01594 2.12751 -5.87037 8.04058 9.0516 -3.37011 1.48092 -3.60275 -4.33347 -4.5371 -0.64302 -9.91309 -5.13425 6.1169 5.38378 6.64166
-0.00303 0.57861 0.0024 201.3801 0 -3.22831 6.64825 4.37827 -2.51798 -4.11755 -0.26261 -3.04237 -3.87688 -11.27033 -38.71324 5.32853 75.08745 -2.71652 1.22995 -8.31043 10.66611 72.40253 5.32837 -73.6057 -7.29453 1.90889 -5.87733 8.04817 9.13092 -3.4028 1.4962 -3.60795 -4.40477 -4.5697 -0.64119 -9.88231 -5.12243 6.1284 5.38329 6.64742
-0.00329 0.57861 0.00246 201.33891 0 -3.23137 6.50729 4.40089 -2.43672 -3.90442 -0.21764 -2.96026 -5.36643 -11.65055 -43.81801 5.32641 74.27151 -3.01549 1.20827 -10.37805 11.0974 78.11224 5.32323 -75.21572 -7.60679 1.68295 -5.87735 8.04678 8.84199 -3.4439 1.54008 -3.6076 -4.09551 -4.60625 -0.6378 -9.8398 -5.10787 6.14208 5.38384 6.65501
-0.00353 0.57862 0.00253 201.32263 0 -3.23102 6.3885 4.42081 -2.34084 -3.7731 -0.20687 -2.87481 -6.62716 -11.93762 -48.03444 5.33032 73.72054 -3.25266 1.17904 -12.14195 11.53414 81.56813 5.3326 -76.36866 -7.85553 1.4536 -5.89031 8.06434 9.29974 -3.47002 1.52442 -3.6184 -4.55558 -4.63486 -0.63697 -9.82072 -5.09954 6.15027 5.38184 6.66135
-0.00369 0.57864 0.00258 201.3762 0 -3.22068 6.32548 4.4331 -2.20541 -3.8471 -0.27923 -2.78578 -7.32682 -11.98747 -49.95106 5.32796 73.94517 -3.32062 1.15774 -13.16922 11.97729 79.30373 5.327 -76.07147 -7.94298 1.22331 -5.94466 8.14103 12.10344 -3.45051 1.32562 -3.66576 -7.4251 -4.64352 -0.64379 -9.86273 -5.10609 6.14453 5.37172 6.65999
-0.00382 0.57866 0.00262 201.45607 0 -3.20695 6.28474 4.44287 -2.05677 -4.00345 -0.38355 -2.69484 -7.79109 -11.94674 -50.97029 5.32867 74.4295 -3.326 1.13345 -13.88403 12.41929 74.84928 5.32865 -75.30271 -7.96811 0.99117 -6.01142 8.2353 15.60656 -3.41585 1.0707 -3.72359 -11.01789 -4.64365 -0.65329 -9.92969 -5.11924 6.13336 5.35942 6.6574
-0.00395 0.57868 0.00267 201.5258 0 -3.19502 6.23507 4.45407 -1.91674 -4.1274 -0.47126 -2.60567 -8.33557 -11.94731 -52.3681 5.32877 74.76387 -3.36 1.11187 -14.70206 12.85109 71.43427 5.32894 -74.7779 -8.01766 0.76241 -6.06957 8.31616 18.58682 -3.3892 0.8558 -3.7722 -14.0786 -4.64608 -0.66158 -9.98882 -5.13078 6.12461 5.34938 6.65676
-0.00413 0.5787 0.00272 201.58705 0 -3.18205 6.18073 4.46395 -1.76454 -4.23131 -0.56961 -2.51113 -8.99246 -11.94306 -53.89166 5.3285 75.22839 -3.39404 1.08042 -15.68078 13.33255 67.75728 5.32827 -74.14953 -8.08337 0.521 -6.14 8.4195 22.41147 -3.35813 0.58108 -3.83804 -17.9762 -4.6553 -0.6697 -10.03272 -5.13662 6.11608 5.33414 6.65076
